<mxfile host="app.diagrams.net" agent="Mozilla/5.0 (Windows NT 10.0; Win64; x64) AppleWebKit/537.36 (KHTML, like Gecko) Chrome/130.0.0.0 Safari/537.36" version="24.8.1">
  <diagram name="Page-1" id="u8WWuHk7CJ4AXS9igboz">
    <mxGraphModel dx="1036" dy="1627" grid="1" gridSize="10" guides="1" tooltips="1" connect="1" arrows="1" fold="1" page="1" pageScale="1" pageWidth="850" pageHeight="1100" math="0" shadow="0">
      <root>
        <mxCell id="0" />
        <mxCell id="1" parent="0" />
        <mxCell id="DkCZoyiGRnXVjxQdqVyi-1" value="" style="whiteSpace=wrap;html=1;sketch=1;hachureGap=4;jiggle=2;curveFitting=1;fontFamily=Architects Daughter;fontSource=https%3A%2F%2Ffonts.googleapis.com%2Fcss%3Ffamily%3DArchitects%2BDaughter;shadow=1;movable=0;resizable=0;rotatable=0;deletable=0;editable=0;locked=1;connectable=0;fillColor=none;" vertex="1" parent="1">
          <mxGeometry x="55" y="-340" width="1215" height="435" as="geometry" />
        </mxCell>
        <mxCell id="DkCZoyiGRnXVjxQdqVyi-2" value="&lt;b&gt;GCC&lt;/b&gt;" style="text;html=1;align=center;verticalAlign=middle;whiteSpace=wrap;rounded=0;fontFamily=Architects Daughter;fontSource=https%3A%2F%2Ffonts.googleapis.com%2Fcss%3Ffamily%3DArchitects%2BDaughter;shadow=1;movable=0;resizable=0;rotatable=0;deletable=0;editable=0;locked=1;connectable=0;" vertex="1" parent="1">
          <mxGeometry x="385" y="-320" width="60" height="30" as="geometry" />
        </mxCell>
        <mxCell id="DkCZoyiGRnXVjxQdqVyi-9" value="" style="endArrow=classic;html=1;rounded=0;sketch=1;hachureGap=4;jiggle=2;curveFitting=1;fontFamily=Architects Daughter;fontSource=https%3A%2F%2Ffonts.googleapis.com%2Fcss%3Ffamily%3DArchitects%2BDaughter;shadow=1;exitX=1;exitY=0.5;exitDx=0;exitDy=0;" edge="1" parent="1" source="DkCZoyiGRnXVjxQdqVyi-4" target="DkCZoyiGRnXVjxQdqVyi-12">
          <mxGeometry width="50" height="50" relative="1" as="geometry">
            <mxPoint x="270" y="-177.5" as="sourcePoint" />
            <mxPoint x="455" y="-207.5" as="targetPoint" />
          </mxGeometry>
        </mxCell>
        <mxCell id="DkCZoyiGRnXVjxQdqVyi-12" value="g++" style="shape=hexagon;perimeter=hexagonPerimeter2;whiteSpace=wrap;html=1;fixedSize=1;sketch=1;hachureGap=4;jiggle=2;curveFitting=1;fontFamily=Architects Daughter;fontSource=https%3A%2F%2Ffonts.googleapis.com%2Fcss%3Ffamily%3DArchitects%2BDaughter;fillColor=#B266FF;" vertex="1" parent="1">
          <mxGeometry x="250" y="-230" width="120" height="80" as="geometry" />
        </mxCell>
        <mxCell id="DkCZoyiGRnXVjxQdqVyi-13" value="" style="endArrow=classic;html=1;rounded=0;sketch=1;hachureGap=4;jiggle=2;curveFitting=1;fontFamily=Architects Daughter;fontSource=https%3A%2F%2Ffonts.googleapis.com%2Fcss%3Ffamily%3DArchitects%2BDaughter;exitX=1;exitY=0.5;exitDx=0;exitDy=0;shadow=1;" edge="1" parent="1" source="DkCZoyiGRnXVjxQdqVyi-12" target="DkCZoyiGRnXVjxQdqVyi-14">
          <mxGeometry width="50" height="50" relative="1" as="geometry">
            <mxPoint x="663.5" y="-167.5" as="sourcePoint" />
            <mxPoint x="663.5" y="-107.5" as="targetPoint" />
          </mxGeometry>
        </mxCell>
        <mxCell id="DkCZoyiGRnXVjxQdqVyi-14" value="*gcno" style="shape=loopLimit;whiteSpace=wrap;html=1;sketch=1;hachureGap=4;jiggle=2;curveFitting=1;fontFamily=Architects Daughter;fontSource=https%3A%2F%2Ffonts.googleapis.com%2Fcss%3Ffamily%3DArchitects%2BDaughter;" vertex="1" parent="1">
          <mxGeometry x="450" y="-230" width="100" height="80" as="geometry" />
        </mxCell>
        <mxCell id="DkCZoyiGRnXVjxQdqVyi-15" value="" style="endArrow=classic;html=1;rounded=0;sketch=1;hachureGap=4;jiggle=2;curveFitting=1;fontFamily=Architects Daughter;fontSource=https%3A%2F%2Ffonts.googleapis.com%2Fcss%3Ffamily%3DArchitects%2BDaughter;exitX=0.5;exitY=1;exitDx=0;exitDy=0;shadow=1;" edge="1" parent="1" target="DkCZoyiGRnXVjxQdqVyi-16">
          <mxGeometry width="50" height="50" relative="1" as="geometry">
            <mxPoint x="663.5" y="20" as="sourcePoint" />
            <mxPoint x="663.5" y="80" as="targetPoint" />
          </mxGeometry>
        </mxCell>
        <mxCell id="DkCZoyiGRnXVjxQdqVyi-16" value="" style="shape=image;html=1;verticalAlign=top;verticalLabelPosition=bottom;labelBackgroundColor=#ffffff;imageAspect=0;aspect=fixed;image=https://cdn2.iconfinder.com/data/icons/boxicons-solid-vol-2/24/bxs-file-html-128.png;sketch=1;hachureGap=4;jiggle=2;curveFitting=1;fontFamily=Architects Daughter;fontSource=https%3A%2F%2Ffonts.googleapis.com%2Fcss%3Ffamily%3DArchitects%2BDaughter;" vertex="1" parent="1">
          <mxGeometry x="600" y="200" width="128" height="128" as="geometry" />
        </mxCell>
        <mxCell id="DkCZoyiGRnXVjxQdqVyi-20" value="" style="group;movable=1;resizable=1;rotatable=1;deletable=1;editable=1;locked=0;connectable=1;" vertex="1" connectable="0" parent="1">
          <mxGeometry x="60" y="-225" width="137.5" height="70" as="geometry" />
        </mxCell>
        <mxCell id="DkCZoyiGRnXVjxQdqVyi-4" value="&lt;div style=&quot;&quot;&gt;&lt;span style=&quot;background-color: initial;&quot;&gt;&lt;b&gt;src&lt;/b&gt;&lt;/span&gt;&lt;/div&gt;" style="rounded=1;whiteSpace=wrap;html=1;sketch=1;hachureGap=4;jiggle=2;curveFitting=1;fontFamily=Architects Daughter;fontSource=https%3A%2F%2Ffonts.googleapis.com%2Fcss%3Ffamily%3DArchitects%2BDaughter;shadow=1;align=left;movable=1;resizable=1;rotatable=1;deletable=1;editable=1;locked=0;connectable=1;" vertex="1" parent="DkCZoyiGRnXVjxQdqVyi-20">
          <mxGeometry width="137.5" height="70" as="geometry" />
        </mxCell>
        <mxCell id="DkCZoyiGRnXVjxQdqVyi-11" value="&lt;b&gt;GoogleTest&lt;/b&gt;" style="ellipse;whiteSpace=wrap;html=1;sketch=1;hachureGap=4;jiggle=2;curveFitting=1;fontFamily=Architects Daughter;fontSource=https%3A%2F%2Ffonts.googleapis.com%2Fcss%3Ffamily%3DArchitects%2BDaughter;movable=1;resizable=1;rotatable=1;deletable=1;editable=1;locked=0;connectable=1;" vertex="1" parent="DkCZoyiGRnXVjxQdqVyi-20">
          <mxGeometry x="38.75" y="20" width="70" height="40" as="geometry" />
        </mxCell>
        <mxCell id="DkCZoyiGRnXVjxQdqVyi-25" value="" style="endArrow=classic;html=1;rounded=0;sketch=1;hachureGap=4;jiggle=2;curveFitting=1;fontFamily=Architects Daughter;fontSource=https%3A%2F%2Ffonts.googleapis.com%2Fcss%3Ffamily%3DArchitects%2BDaughter;exitX=0.5;exitY=1;exitDx=0;exitDy=0;shadow=1;entryX=0.5;entryY=0;entryDx=0;entryDy=0;entryPerimeter=0;" edge="1" parent="1" source="DkCZoyiGRnXVjxQdqVyi-12" target="DkCZoyiGRnXVjxQdqVyi-27">
          <mxGeometry width="50" height="50" relative="1" as="geometry">
            <mxPoint x="370" y="-80" as="sourcePoint" />
            <mxPoint x="308.4000000000001" y="-79.40000000000009" as="targetPoint" />
          </mxGeometry>
        </mxCell>
        <mxCell id="DkCZoyiGRnXVjxQdqVyi-27" value="app" style="whiteSpace=wrap;html=1;shape=mxgraph.basic.document;sketch=1;hachureGap=4;jiggle=2;curveFitting=1;fontFamily=Architects Daughter;fontSource=https%3A%2F%2Ffonts.googleapis.com%2Fcss%3Ffamily%3DArchitects%2BDaughter;" vertex="1" parent="1">
          <mxGeometry x="270" y="-90" width="80" height="80" as="geometry" />
        </mxCell>
        <mxCell id="DkCZoyiGRnXVjxQdqVyi-28" value="" style="endArrow=classic;html=1;rounded=0;sketch=1;hachureGap=4;jiggle=2;curveFitting=1;fontFamily=Architects Daughter;fontSource=https%3A%2F%2Ffonts.googleapis.com%2Fcss%3Ffamily%3DArchitects%2BDaughter;shadow=1;entryX=-0.016;entryY=0.628;entryDx=0;entryDy=0;entryPerimeter=0;exitX=1;exitY=0.5;exitDx=0;exitDy=0;exitPerimeter=0;" edge="1" parent="1" source="DkCZoyiGRnXVjxQdqVyi-27" target="DkCZoyiGRnXVjxQdqVyi-29">
          <mxGeometry width="50" height="50" relative="1" as="geometry">
            <mxPoint x="360" y="-50" as="sourcePoint" />
            <mxPoint x="430" y="-50.5" as="targetPoint" />
          </mxGeometry>
        </mxCell>
        <mxCell id="DkCZoyiGRnXVjxQdqVyi-29" value="*gcda" style="shape=loopLimit;whiteSpace=wrap;html=1;sketch=1;hachureGap=4;jiggle=2;curveFitting=1;fontFamily=Architects Daughter;fontSource=https%3A%2F%2Ffonts.googleapis.com%2Fcss%3Ffamily%3DArchitects%2BDaughter;" vertex="1" parent="1">
          <mxGeometry x="450" y="-100" width="100" height="80" as="geometry" />
        </mxCell>
      </root>
    </mxGraphModel>
  </diagram>
</mxfile>
